<svg width="24" height="33" viewBox="0 0 24 33" fill="none" xmlns="http://www.w3.org/2000/svg">
<path d="M5.00922 32.2546V17.5192H20.5967V19.925H8.31717V23.3833H17.6897V25.8643H8.31717V29.8489H20.6969L21.6994 31.979C21.6994 32.0458 21.4738 32.1126 21.0227 32.1795C20.5716 32.2296 19.7948 32.2546 18.6921 32.2546H5.00922Z" fill="#FAF9F6"/>
<path d="M8.15297 0.452259L12.2233 6.78389L15.3891 0L18.1935 7.54917L23.0775 0.452259C23.0775 0.452259 23.5889 0.520474 23.5298 0.904518L21.2982 13.947C21.1496 14.913 20.3185 15.626 19.3412 15.626H4.91823C3.94094 15.626 3.10982 14.913 2.96121 13.947L0.0123034 0.904518C-0.0467812 0.520474 0.107422 0.751459 0.464564 0.904518L5.43941 5.87937L8.15297 0.452259Z" fill="#FAF9F6"/>
</svg>
