<svg width="39" height="43" viewBox="0 0 39 43" fill="none" xmlns="http://www.w3.org/2000/svg">
<path d="M6.32517 32.4886L19.0808 12.8806L31.8365 32.4886H6.32517Z" stroke="#88392C" stroke-width="4.08875"/>
<path d="M17.7795 7.46788C17.2147 7.46788 16.8331 7.26944 16.6347 6.87256C16.4362 6.47568 16.337 6.04063 16.337 5.56743C16.337 5.39952 16.3446 5.22397 16.3599 5.0408C16.3904 4.84236 16.4286 4.62102 16.4744 4.37679L17.8482 4.05623C17.8024 4.31573 17.7643 4.55996 17.7337 4.78893C17.7185 5.00264 17.7108 5.19344 17.7108 5.36136C17.7108 5.5598 17.749 5.71244 17.8253 5.81929C17.9016 5.92615 18.0085 5.97957 18.1459 5.97957C18.3291 5.97957 18.4741 5.87272 18.5809 5.65902C18.703 5.44531 18.7641 5.03317 18.7641 4.42258V3.73567L20.0921 3.32352V4.72024C20.0921 4.88815 20.1226 5.02553 20.1837 5.13239C20.26 5.23924 20.3745 5.29266 20.5272 5.29266C20.7409 5.29266 20.8859 5.23161 20.9622 5.10949C21.0538 4.97211 21.0996 4.81183 21.0996 4.62865C21.0996 4.36915 21.0691 4.10965 21.008 3.85015C20.9469 3.57539 20.863 3.30826 20.7561 3.04876L22.0155 2.7282C22.1681 3.01823 22.2902 3.35405 22.3818 3.73567C22.4887 4.10202 22.5421 4.43784 22.5421 4.74314C22.5421 5.24687 22.3971 5.70481 22.1071 6.11696C21.817 6.51384 21.3438 6.71228 20.6874 6.71228C20.2753 6.71228 19.9242 6.59016 19.6342 6.34593C19.3442 6.08643 19.1991 5.78113 19.1991 5.43005L19.7258 5.63612C19.7258 6.15512 19.5426 6.59016 19.1762 6.94125C18.8252 7.29233 18.3596 7.46788 17.7795 7.46788Z" fill="#88392C"/>
</svg>
