<svg width="33" height="37" viewBox="0 0 33 37" fill="none" xmlns="http://www.w3.org/2000/svg">
<path d="M5.44259 27.9553L16.4184 11.0834L27.3942 27.9553H5.44259Z" stroke="#333131" stroke-width="3.51822"/>
<path d="M15.2987 6.35608C14.8127 6.35608 14.4844 6.18533 14.3136 5.84383C14.1429 5.50233 14.0575 5.12799 14.0575 4.72081C14.0575 4.57633 14.0641 4.42528 14.0772 4.26766C14.1035 4.09691 14.1363 3.90646 14.1757 3.6963L15.3578 3.42047C15.3184 3.64376 15.2856 3.85392 15.2593 4.05094C15.2462 4.23483 15.2396 4.39901 15.2396 4.54349C15.2396 4.71424 15.2725 4.84559 15.3381 4.93753C15.4038 5.02948 15.4958 5.07545 15.614 5.07545C15.7716 5.07545 15.8964 4.9835 15.9883 4.79962C16.0934 4.61573 16.1459 4.2611 16.1459 3.73571V3.14465L17.2886 2.79001V3.99183C17.2886 4.13632 17.3149 4.25453 17.3674 4.34647C17.4331 4.43841 17.5316 4.48439 17.663 4.48439C17.8469 4.48439 17.9716 4.43185 18.0373 4.32677C18.1161 4.20856 18.1555 4.07064 18.1555 3.91303C18.1555 3.68974 18.1293 3.46645 18.0767 3.24316C18.0242 3.00673 17.9519 2.77687 17.86 2.55358L18.9436 2.27775C19.075 2.52731 19.18 2.81628 19.2588 3.14465C19.3508 3.45988 19.3968 3.74884 19.3968 4.01154C19.3968 4.44498 19.272 4.83902 19.0224 5.19366C18.7729 5.53516 18.3657 5.70591 17.8009 5.70591C17.4463 5.70591 17.1442 5.60084 16.8946 5.39068C16.645 5.16739 16.5203 4.9047 16.5203 4.6026L16.9734 4.77992C16.9734 5.2265 16.8158 5.60084 16.5006 5.90293C16.1985 6.20503 15.7979 6.35608 15.2987 6.35608Z" fill="#333131"/>
</svg>
